<mxfile
  host="Electron" 
  agent="Mozilla/5.0 (Macintosh; Intel Mac OS X 10_15_7) AppleWebKit/537.36 (KHTML, like Gecko) draw.io/25.0.2 Chrome/128.0.6613.186 Electron/32.2.5 Safari/537.36" 
  version="25.0.2"
  >
  <diagram
    name="-"
    >
    <mxGraphModel
      grid="1" 
      gridSize="10" 
      guides="1" 
      tooltips="1" 
      connect="1" 
      arrows="1" 
      fold="1" 
      page="1" 
      pageScale="1" 
      pageWidth="1" 
      pageHeight="1" 
      math="0" 
      shadow="0"
      >
      <root>
        <mxCell
          id="page"
          />
        <mxCell
          id="root" 
          parent="page"
          />
        <mxCell
          style="verticalAlign=top;aspect=fixed;align=center;spacingLeft=5;spacingRight=5;spacingBottom=5;strokeColor=none;" 
          id="shape_" 
          parent="root" 
          value=" " 
          vertex="1"
          >
          <mxGeometry
            as="geometry" 
            width="41.91" 
            height="48" 
            x="0" 
            y="0"
            />
          </mxCell>
        <mxCell
          style="shape=image;verticalLabelPosition=bottom;labelBackgroundColor=default;verticalAlign=top;aspect=fixed;imageAspect=0;editableCssRules=.*;image=data:image/svg+xml,PHN2ZyB4bWxuczp4bGluaz0iaHR0cDovL3d3dy53My5vcmcvMTk5OS94bGluayIgeG1sbnM9Imh0dHA6Ly93d3cudzMub3JnLzIwMDAvc3ZnIiB2aWV3Qm94PSIwIDAgMTggMjMuMDA5OTk4MzIxNTMzMjAzIiB2ZXJzaW9uPSIxLjEiIGlkPSJMYXllcl8xIiB3aWR0aD0iMTgiIGhlaWdodD0iMjMuMDA5OTk4MzIxNTMzMjAzIj4mI3hhOyAgPHN0eWxlIHR5cGU9InRleHQvY3NzIj4uc3QwIHsgc3RvcC1jb2xvcjogcmdiKDM1LCAxNDksIDI1NSk7IH0gLnN0MSB7IHN0b3AtY29sb3I6IHJnYigwLCA4NywgMjEwKTsgfSA8L3N0eWxlPiYjeGE7ICA8ZGVmcz4mI3hhOyAgICA8bGluZWFyR3JhZGllbnQgaWQ9IkEiIHgxPSIwIiB5MT0iMCIgeDI9IjE4IiB5Mj0iMjMiIGdyYWRpZW50VW5pdHM9InVzZXJTcGFjZU9uVXNlIj4mI3hhOyAgICAgIDxzdG9wIGNsYXNzPSJzdDAiLz4mI3hhOyAgICAgIDxzdG9wIG9mZnNldD0iMSIgY2xhc3M9InN0MSIvPiYjeGE7ICAgIDwvbGluZWFyR3JhZGllbnQ+JiN4YTsgIDwvZGVmcz4mI3hhOyAgPHBhdGggZmlsbD0idXJsKCNBKSIgZD0iTTE2LjU0LDE5Ljg5Yy4yNC4yNC4zNS41MS4zNS44MXMtLjEyLjU3LS4zNS44MWMtLjI0LjI0LS41LjM2LS43OS4zNnMtLjU2LS4xMi0uNzktLjM2bC0zLjM1LTMuNDdjLS4xNS0uMTUtLjIyLS4yNy0uMjItLjM2LS42OC40OC0xLjQ3LjcyLTIuMzguNzItLjYyLDAtMS4yMS0uMTItMS43Ni0uMzYtLjUzLS4yNC0xLS41Ny0xLjQxLS45OS0uNDEtLjQyLS43NC0uOTItLjk3LTEuNDktLjI0LS41Ny0uMzUtMS4xNy0uMzUtMS44cy4xMi0xLjIyLjM1LTEuNzZjLjI0LS41Ny41Ni0xLjA3Ljk3LTEuNDlzLjg4LS43NSwxLjQxLS45OWMuNTYtLjI0LDEuMTUtLjM2LDEuNzYtLjM2czEuMTkuMTIsMS43Mi4zNmMuNTYuMjQsMS4wNC41NywxLjQ2Ljk5LjQxLjQyLjc0LjkyLjk3LDEuNDkuMjQuNTQuMzUsMS4xMy4zNSwxLjc2LDAsLjkzLS4yMiwxLjc0LS42NiwyLjQzLjA2LDAsLjEyLjAzLjE4LjA5LjA2LjAzLjEyLjA3LjE4LjEzbDMuMzUsMy40N1pNOSwxNi4xMWMuNjIsMCwxLjE1LS4yMywxLjU5LS42OC40NC0uNDUuNjYtMS4wMS42Ni0xLjY3cy0uMjItMS4xNy0uNjYtMS42MmMtLjQ0LS40NS0uOTctLjY4LTEuNTktLjY4cy0xLjE1LjIzLTEuNTkuNjhjLS40NC40NS0uNjYuOTktLjY2LDEuNjJzLjIyLDEuMjIuNjYsMS42N2MuNDQuNDUuOTcuNjgsMS41OS42OFpNMTcuNjkuMzZjLjIxLjIxLjMxLjQ3LjMxLjc3djEzLjgyYzAsLjMzLS4xLjYyLS4zMS44Ni0uMjEuMjEtLjQ3LjMyLS43OS4zMnMtLjYtLjExLS44NC0uMzJjLS4yMS0uMjQtLjMxLS41My0uMzEtLjg2VjIuM0gyLjI1djE4LjQxaDcuOWMuNzQsMCwxLjEuMzgsMS4xLDEuMTNzLS4zNywxLjE3LTEuMSwxLjE3SDEuMWMtLjc0LDAtMS4xLS4zOS0xLjEtMS4xN1YxLjEzQzAsLjM4LjM3LDAsMS4xLDBoMTUuNzljLjMyLDAsLjU5LjEyLjc5LjM2Wk01LjYsNi44OWMtLjc0LDAtMS4xLS4zOC0xLjEtMS4xM3MuMzctMS4xNywxLjEtMS4xN2g2Ljc5Yy43NCwwLDEuMS4zOSwxLjEsMS4xN3MtLjM3LDEuMTMtMS4xLDEuMTNoLTYuNzlaIi8+JiN4YTs8L3N2Zz4;strokeColor=none;" 
          id="detail_view_sap_" 
          parent="shape_" 
          value=" " 
          vertex="1"
          >
          <mxGeometry
            width="21.909999999999997" 
            height="28" 
            as="geometry" 
            x="10" 
            y="10"
            />
          </mxCell>
        </root>
      </mxGraphModel>
    </diagram>
  </mxfile>